<?xml version="1.0" encoding="UTF-8" standalone="no"?>
<!-- Created with Inkscape (http://www.inkscape.org/) -->

<svg
   xmlns:dc="http://purl.org/dc/elements/1.1/"
   xmlns:cc="http://creativecommons.org/ns#"
   xmlns:rdf="http://www.w3.org/1999/02/22-rdf-syntax-ns#"
   xmlns:svg="http://www.w3.org/2000/svg"
   xmlns="http://www.w3.org/2000/svg"
   xmlns:sodipodi="http://sodipodi.sourceforge.net/DTD/sodipodi-0.dtd"
   xmlns:inkscape="http://www.inkscape.org/namespaces/inkscape"
   width="16"
   height="16"
   viewBox="0 0 16 16"
   id="svg2"
   version="1.1"
   inkscape:version="0.91 r13725"
   sodipodi:docname="lock-light.svg">
  <defs
     id="defs4" />
  <sodipodi:namedview
     id="base"
     pagecolor="#ffffff"
     bordercolor="#666666"
     borderopacity="1.0"
     inkscape:pageopacity="0"
     inkscape:pageshadow="2"
     inkscape:zoom="22.4"
     inkscape:cx="10.688527"
     inkscape:cy="3.8106117"
     inkscape:document-units="px"
     inkscape:current-layer="g4154"
     showgrid="true"
     units="px"
     inkscape:window-width="1680"
     inkscape:window-height="1007"
     inkscape:window-x="0"
     inkscape:window-y="0"
     inkscape:window-maximized="1">
    <inkscape:grid
       type="xygrid"
       id="grid4136"
       empspacing="4" />
    <inkscape:grid
       type="xygrid"
       id="grid4138"
       empspacing="4"
       originy="0.5"
       originx="0.5"
       snapvisiblegridlinesonly="true"
       dotted="true" />
  </sodipodi:namedview>
  <metadata
     id="metadata7">
    <rdf:RDF>
      <cc:Work
         rdf:about="">
        <dc:format>image/svg+xml</dc:format>
        <dc:type
           rdf:resource="http://purl.org/dc/dcmitype/StillImage" />
        <dc:title></dc:title>
      </cc:Work>
    </rdf:RDF>
  </metadata>
  <g
     inkscape:label="Layer 1"
     inkscape:groupmode="layer"
     id="layer1"
     transform="translate(0,-1036.3622)">
    <g
       id="g4154"
       transform="translate(0,-0.99998262)">
      <path
         style="opacity:1;fill:#000000;fill-opacity:1;fill-rule:nonzero;stroke:none;stroke-width:1;stroke-linecap:butt;stroke-linejoin:miter;stroke-miterlimit:4;stroke-dasharray:none;stroke-opacity:1"
         d="M 8 2 C 6.3490681 2 5 3.3491 5 5 L 4 5 L 4 14 L 12 14 L 12 5 L 11 5 C 11 3.3491 9.6509319 2 8 2 z M 8 3 C 9.1104918 3 10 3.8895 10 5 L 6 5 C 6 3.8895 6.8895082 3 8 3 z M 8 7 A 1.5 1.5 0 0 1 9.5 8.5 A 1.5 1.5 0 0 1 8.4628906 9.9257812 L 9.5 12 L 6.5 12 L 7.5371094 9.9257812 A 1.5 1.5 0 0 1 6.5 8.5 A 1.5 1.5 0 0 1 8 7 z "
         transform="translate(0,1037.3622)"
         id="rect4150" />
    </g>
  </g>
</svg>
