<?xml version="1.0" encoding="UTF-8" standalone="no"?>
<!-- Created with Inkscape (http://www.inkscape.org/) -->

<svg
   xmlns:dc="http://purl.org/dc/elements/1.1/"
   xmlns:cc="http://creativecommons.org/ns#"
   xmlns:rdf="http://www.w3.org/1999/02/22-rdf-syntax-ns#"
   xmlns:svg="http://www.w3.org/2000/svg"
   xmlns="http://www.w3.org/2000/svg"
   xmlns:xlink="http://www.w3.org/1999/xlink"
   xmlns:sodipodi="http://sodipodi.sourceforge.net/DTD/sodipodi-0.dtd"
   xmlns:inkscape="http://www.inkscape.org/namespaces/inkscape"
   width="32"
   height="32"
   viewBox="0 0 32 32.000001"
   id="svg2"
   version="1.1"
   inkscape:version="0.91 r13725"
   sodipodi:docname="oblivionIcon.svg">
  <defs
     id="defs4">
    <linearGradient
       inkscape:collect="always"
       id="linearGradient4142">
      <stop
         style="stop-color:#6400ff;stop-opacity:1"
         offset="0"
         id="stop4144" />
      <stop
         style="stop-color:#6464ff;stop-opacity:1"
         offset="1"
         id="stop4146" />
    </linearGradient>
    <linearGradient
       inkscape:collect="always"
       xlink:href="#linearGradient4142"
       id="linearGradient4148"
       x1="0"
       y1="1052.3622"
       x2="32"
       y2="1020.3622"
       gradientUnits="userSpaceOnUse" />
  </defs>
  <sodipodi:namedview
     id="base"
     pagecolor="#ffffff"
     bordercolor="#666666"
     borderopacity="1.0"
     inkscape:pageopacity="0.0"
     inkscape:pageshadow="2"
     inkscape:zoom="11.2"
     inkscape:cx="17.227232"
     inkscape:cy="2.482803"
     inkscape:document-units="px"
     inkscape:current-layer="layer1"
     showgrid="true"
     units="px"
     inkscape:window-width="1680"
     inkscape:window-height="1007"
     inkscape:window-x="0"
     inkscape:window-y="0"
     inkscape:window-maximized="1">
    <inkscape:grid
       type="xygrid"
       id="grid4136"
       empspacing="0"
       originy="0.50000002"
       originx="0.5"
       dotted="true" />
    <inkscape:grid
       type="xygrid"
       id="grid4138"
       empspacing="4" />
  </sodipodi:namedview>
  <metadata
     id="metadata7">
    <rdf:RDF>
      <cc:Work
         rdf:about="">
        <dc:format>image/svg+xml</dc:format>
        <dc:type
           rdf:resource="http://purl.org/dc/dcmitype/StillImage" />
        <dc:title></dc:title>
      </cc:Work>
    </rdf:RDF>
  </metadata>
  <g
     inkscape:label="Layer 1"
     inkscape:groupmode="layer"
     id="layer1"
     transform="translate(0,-1020.3622)">
    <circle
       style="opacity:1;fill:url(#linearGradient4148);fill-opacity:1;fill-rule:nonzero;stroke:none;stroke-width:1;stroke-linecap:butt;stroke-linejoin:miter;stroke-miterlimit:4;stroke-dasharray:none;stroke-opacity:1"
       id="path4140"
       cx="16"
       cy="1036.3622"
       r="16" />
    <g
       id="g4202"
       transform="matrix(1.5892847,0,0,1.5892847,-12.607124,-612.30165)">
      <path
         style="opacity:0.5;fill:#ffffff;fill-opacity:1;fill-rule:nonzero;stroke:none;stroke-width:1;stroke-linecap:butt;stroke-linejoin:miter;stroke-miterlimit:4;stroke-dasharray:none;stroke-opacity:1"
         d="M 10.947266 8.0527344 A 7.9464234 7.9464234 0 0 0 3 16 A 7.9464234 7.9464234 0 0 0 10.947266 23.947266 A 7.9464234 7.9464234 0 0 0 13.46875 23.525391 A 7.9464234 7.9464234 0 0 1 11.589844 22.59375 A 6.6220193 6.6220193 0 0 1 11.021484 22.621094 A 6.6220193 6.6220193 0 0 1 4.4003906 16 A 6.6220193 6.6220193 0 0 1 11.021484 9.3789062 A 6.6220193 6.6220193 0 0 1 11.591797 9.40625 A 7.9464234 7.9464234 0 0 1 13.478516 8.4746094 A 7.9464234 7.9464234 0 0 0 10.947266 8.0527344 z "
         transform="matrix(0.62921388,0,0,0.62921388,7.9325775,1027.2948)"
         id="path4154-6-4" />
      <path
         style="opacity:0.75;fill:#ffffff;fill-opacity:1;fill-rule:nonzero;stroke:none;stroke-width:1;stroke-linecap:butt;stroke-linejoin:miter;stroke-miterlimit:4;stroke-dasharray:none;stroke-opacity:1"
         d="M 16 8.0527344 A 7.9464234 7.9464234 0 0 0 8.0527344 16 A 7.9464234 7.9464234 0 0 0 16 23.947266 A 7.9464234 7.9464234 0 0 0 20.455078 22.580078 A 6.6220193 6.6220193 0 0 1 18.675781 22.126953 A 6.6220193 6.6220193 0 0 1 16.177734 22.621094 A 6.6220193 6.6220193 0 0 1 9.5566406 16 A 6.6220193 6.6220193 0 0 1 16.177734 9.3789062 A 6.6220193 6.6220193 0 0 1 18.679688 9.8730469 A 6.6220193 6.6220193 0 0 1 20.453125 9.4257812 A 7.9464234 7.9464234 0 0 0 16 8.0527344 z "
         transform="matrix(0.62921388,0,0,0.62921388,7.9325775,1027.2948)"
         id="path4154-6" />
      <path
         style="opacity:1;fill:#ffffff;fill-opacity:1;fill-rule:nonzero;stroke:none;stroke-width:1;stroke-linecap:butt;stroke-linejoin:miter;stroke-miterlimit:4;stroke-dasharray:none;stroke-opacity:1"
         d="M 21.177734 8.0527344 A 7.9464235 7.9464235 0 0 0 13.232422 16 A 7.9464235 7.9464235 0 0 0 21.177734 23.947266 A 7.9464235 7.9464235 0 0 0 29.125 16 A 7.9464235 7.9464235 0 0 0 21.177734 8.0527344 z M 21.177734 9.3789062 A 6.6220193 6.6220193 0 0 1 27.800781 16 A 6.6220193 6.6220193 0 0 1 21.177734 22.621094 A 6.6220193 6.6220193 0 0 1 14.556641 16 A 6.6220193 6.6220193 0 0 1 21.177734 9.3789062 z "
         transform="matrix(0.62921388,0,0,0.62921388,7.9325775,1027.2948)"
         id="path4154" />
    </g>
    <path
       style="opacity:1;fill:#ffffff;fill-opacity:1;fill-rule:nonzero;stroke:none;stroke-width:1;stroke-linecap:butt;stroke-linejoin:miter;stroke-miterlimit:4;stroke-dasharray:none;stroke-opacity:1"
       d="m 30.5,1036.3622 -3,-3"
       id="path4207"
       inkscape:connector-curvature="0" />
    <path
       style="opacity:1;fill:none;fill-opacity:1;fill-rule:nonzero;stroke:#ffffff;stroke-width:1;stroke-linecap:butt;stroke-linejoin:miter;stroke-miterlimit:4;stroke-dasharray:none;stroke-opacity:1"
       d="m 16,1036.3622 10,0"
       id="path4299"
       inkscape:connector-curvature="0" />
  </g>
</svg>
